# Blender v2.81 (sub 16) OBJ File: ''
# www.blender.org
mtllib Achievement.mtl
o Achievement_Cube
v 1.000000 0.500000 -3.000000
v 1.000000 -0.500000 -3.000000
v 1.000000 0.500000 3.000000
v 1.000000 -0.500000 3.000000
v -1.000000 0.500000 -3.000000
v -1.000000 -0.500000 -3.000000
v -1.000000 0.500000 3.000000
v -1.000000 -0.500000 3.000000
v -1.000000 0.500000 1.000000
v -1.000000 -0.500000 1.000000
v -0.943806 0.500000 1.000000
v -0.943806 -0.500000 1.000000
v -0.943806 0.500000 -1.000000
v -0.943806 -0.500000 -1.000000
v -1.000000 0.500000 -1.000000
v -1.000000 -0.500000 -1.000000
v -2.943806 -0.500000 1.000000
v -2.943806 0.500000 1.000000
v -2.943806 -0.500000 -1.000000
v -2.943806 0.500000 -1.000000
v -0.943806 -0.500000 1.000000
v -0.943806 0.500000 1.000000
v -0.943806 -0.500000 -1.000000
v -0.943806 0.500000 -1.000000
vt 0.625000 0.500000
vt 0.875000 0.500000
vt 0.875000 0.583333
vt 0.867976 0.583333
vt 0.867976 0.666667
vt 0.875000 0.666667
vt 0.875000 0.750000
vt 0.625000 0.750000
vt 0.375000 0.750000
vt 0.625000 1.000000
vt 0.375000 1.000000
vt 0.375000 0.000000
vt 0.625000 0.000000
vt 0.625000 0.083333
vt 0.375000 0.083333
vt 0.125000 0.500000
vt 0.375000 0.500000
vt 0.125000 0.750000
vt 0.125000 0.666667
vt 0.132024 0.666667
vt 0.132024 0.583333
vt 0.125000 0.583333
vt 0.375000 0.250000
vt 0.625000 0.250000
vt 0.377451 0.750000
vt 0.622549 0.750000
vt 0.622549 0.500000
vt 0.377451 0.500000
vt 0.622549 0.492976
vt 0.377451 0.492976
vt 0.375000 0.166667
vt 0.625000 0.166667
vt 0.377451 0.757024
vt 0.622549 0.757024
vt 0.375000 0.000000
vt 0.625000 0.000000
vt 0.625000 0.250000
vt 0.375000 0.250000
vt 0.625000 0.500000
vt 0.375000 0.500000
vt 0.625000 0.750000
vt 0.375000 0.750000
vt 0.625000 1.000000
vt 0.375000 1.000000
vt 0.125000 0.500000
vt 0.125000 0.750000
vt 0.875000 0.500000
vt 0.875000 0.750000
vn -0.0000 1.0000 0.0000
vn 0.0000 0.0000 1.0000
vn -1.0000 0.0000 0.0000
vn 0.0000 -1.0000 0.0000
vn 1.0000 0.0000 0.0000
vn 0.0000 0.0000 -1.0000
usemtl Material
s off
f 1/1/1 5/2/1 15/3/1 13/4/1 11/5/1 9/6/1 7/7/1 3/8/1
f 4/9/2 3/8/2 7/10/2 8/11/2
f 8/12/3 7/13/3 9/14/3 10/15/3
f 6/16/4 2/17/4 4/9/4 8/18/4 10/19/4 12/20/4 14/21/4 16/22/4
f 2/17/5 1/1/5 3/8/5 4/9/5
f 6/23/6 5/24/6 1/1/6 2/17/6
f 12/25/3 11/26/3 13/27/3 14/28/3
f 14/28/2 13/27/2 15/29/2 16/30/2
f 16/31/3 15/32/3 5/24/3 6/23/3
f 11/26/6 12/25/6 10/33/6 9/34/6
f 17/35/3 18/36/3 20/37/3 19/38/3
f 19/38/6 20/37/6 24/39/6 23/40/6
f 23/40/5 24/39/5 22/41/5 21/42/5
f 21/42/2 22/41/2 18/43/2 17/44/2
f 19/45/4 23/40/4 21/42/4 17/46/4
f 24/39/1 20/47/1 18/48/1 22/41/1
